<svg width="749" height="106" viewBox="0 0 749 106" fill="none" xmlns="http://www.w3.org/2000/svg">
<path d="M23.5773 24.2V50.1H68.9373V68.3H23.5773V104H0.897344V5.99999H74.9574V24.2H23.5773ZM122.697 105.12C114.764 105.12 107.624 103.487 101.277 100.22C95.024 96.86 90.124 92.24 86.5773 86.36C83.0307 80.48 81.2573 73.8067 81.2573 66.34C81.2573 58.8733 83.0307 52.2 86.5773 46.32C90.124 40.44 95.024 35.8667 101.277 32.6C107.624 29.24 114.764 27.56 122.697 27.56C130.631 27.56 137.724 29.24 143.977 32.6C150.231 35.8667 155.131 40.44 158.677 46.32C162.224 52.2 163.997 58.8733 163.997 66.34C163.997 73.8067 162.224 80.48 158.677 86.36C155.131 92.24 150.231 96.86 143.977 100.22C137.724 103.487 130.631 105.12 122.697 105.12ZM122.697 87.2C128.297 87.2 132.871 85.3333 136.417 81.6C140.057 77.7733 141.877 72.6867 141.877 66.34C141.877 59.9933 140.057 54.9533 136.417 51.22C132.871 47.3933 128.297 45.48 122.697 45.48C117.097 45.48 112.477 47.3933 108.837 51.22C105.197 54.9533 103.377 59.9933 103.377 66.34C103.377 72.6867 105.197 77.7733 108.837 81.6C112.477 85.3333 117.097 87.2 122.697 87.2ZM214.996 105.12C206.969 105.12 199.736 103.487 193.296 100.22C186.949 96.86 181.956 92.24 178.316 86.36C174.769 80.48 172.996 73.8067 172.996 66.34C172.996 58.8733 174.769 52.2 178.316 46.32C181.956 40.44 186.949 35.8667 193.296 32.6C199.736 29.24 206.969 27.56 214.996 27.56C222.929 27.56 229.836 29.24 235.716 32.6C241.689 35.8667 246.029 40.58 248.736 46.74L231.796 55.84C227.876 48.9333 222.229 45.48 214.856 45.48C209.162 45.48 204.449 47.3467 200.716 51.08C196.982 54.8133 195.116 59.9 195.116 66.34C195.116 72.78 196.982 77.8667 200.716 81.6C204.449 85.3333 209.162 87.2 214.856 87.2C222.322 87.2 227.969 83.7467 231.796 76.84L248.736 86.08C246.029 92.0533 241.689 96.72 235.716 100.08C229.836 103.44 222.929 105.12 214.996 105.12ZM337.19 28.68V104H316.47V95.04C313.577 98.3067 310.124 100.827 306.11 102.6C302.097 104.28 297.757 105.12 293.09 105.12C283.197 105.12 275.357 102.273 269.57 96.58C263.784 90.8867 260.89 82.44 260.89 71.24V28.68H282.73V68.02C282.73 80.1533 287.817 86.22 297.99 86.22C303.217 86.22 307.417 84.54 310.59 81.18C313.764 77.7267 315.35 72.64 315.35 65.92V28.68H337.19ZM382.764 105.12C376.51 105.12 370.397 104.373 364.424 102.88C358.45 101.293 353.69 99.3333 350.144 97L357.424 81.32C360.784 83.4667 364.844 85.24 369.604 86.64C374.364 87.9467 379.03 88.6 383.604 88.6C392.844 88.6 397.464 86.3133 397.464 81.74C397.464 79.5933 396.204 78.0533 393.684 77.12C391.164 76.1867 387.29 75.3933 382.064 74.74C375.904 73.8067 370.817 72.7333 366.804 71.52C362.79 70.3067 359.29 68.16 356.304 65.08C353.41 62 351.964 57.6133 351.964 51.92C351.964 47.16 353.317 42.96 356.024 39.32C358.824 35.5867 362.837 32.6933 368.064 30.64C373.384 28.5867 379.637 27.56 386.824 27.56C392.144 27.56 397.417 28.1667 402.644 29.38C407.964 30.5 412.35 32.0867 415.804 34.14L408.524 49.68C401.897 45.9467 394.664 44.08 386.824 44.08C382.157 44.08 378.657 44.7333 376.324 46.04C373.99 47.3467 372.824 49.0267 372.824 51.08C372.824 53.4133 374.084 55.0467 376.604 55.98C379.124 56.9133 383.137 57.8 388.644 58.64C394.804 59.6667 399.844 60.7867 403.764 62C407.684 63.12 411.09 65.22 413.984 68.3C416.877 71.38 418.324 75.6733 418.324 81.18C418.324 85.8467 416.924 90 414.124 93.64C411.324 97.28 407.217 100.127 401.804 102.18C396.484 104.14 390.137 105.12 382.764 105.12ZM505.579 66.62C505.579 66.9 505.439 68.86 505.159 72.5H448.179C449.205 77.1667 451.632 80.8533 455.459 83.56C459.285 86.2667 464.045 87.62 469.739 87.62C473.659 87.62 477.112 87.06 480.099 85.94C483.179 84.7267 486.025 82.86 488.639 80.34L500.259 92.94C493.165 101.06 482.805 105.12 469.179 105.12C460.685 105.12 453.172 103.487 446.639 100.22C440.105 96.86 435.065 92.24 431.519 86.36C427.972 80.48 426.199 73.8067 426.199 66.34C426.199 58.9667 427.925 52.34 431.379 46.46C434.925 40.4867 439.732 35.8667 445.799 32.6C451.959 29.24 458.819 27.56 466.379 27.56C473.752 27.56 480.425 29.1467 486.399 32.32C492.372 35.4933 497.039 40.0667 500.399 46.04C503.852 51.92 505.579 58.78 505.579 66.62ZM466.519 44.08C461.572 44.08 457.419 45.48 454.059 48.28C450.699 51.08 448.645 54.9067 447.899 59.76H484.999C484.252 55 482.199 51.22 478.839 48.42C475.479 45.5267 471.372 44.08 466.519 44.08ZM596.839 0.119994V104H575.979V95.32C570.566 101.853 562.726 105.12 552.459 105.12C545.366 105.12 538.926 103.533 533.139 100.36C527.446 97.1867 522.966 92.66 519.699 86.78C516.432 80.9 514.799 74.0867 514.799 66.34C514.799 58.5933 516.432 51.78 519.699 45.9C522.966 40.02 527.446 35.4933 533.139 32.32C538.926 29.1467 545.366 27.56 552.459 27.56C562.072 27.56 569.586 30.5933 574.999 36.66V0.119994H596.839ZM556.239 87.2C561.746 87.2 566.319 85.3333 569.959 81.6C573.599 77.7733 575.419 72.6867 575.419 66.34C575.419 59.9933 573.599 54.9533 569.959 51.22C566.319 47.3933 561.746 45.48 556.239 45.48C550.639 45.48 546.019 47.3933 542.379 51.22C538.739 54.9533 536.919 59.9933 536.919 66.34C536.919 72.6867 538.739 77.7733 542.379 81.6C546.019 85.3333 550.639 87.2 556.239 87.2ZM619.713 104.42C618.779 104.42 617.939 104.047 617.193 103.3C616.446 102.553 616.073 101.713 616.073 100.78C616.073 99.7533 616.446 98.9133 617.193 98.26C617.939 97.5133 618.779 97.14 619.713 97.14C620.739 97.14 621.579 97.5133 622.233 98.26C622.979 98.9133 623.353 99.7533 623.353 100.78C623.353 101.713 622.979 102.553 622.233 103.3C621.579 104.047 620.739 104.42 619.713 104.42ZM647.242 30.92H654.242V104H647.242V30.92ZM650.742 13.14C649.156 13.14 647.802 12.6267 646.682 11.6C645.562 10.48 645.002 9.12666 645.002 7.54C645.002 5.95333 645.562 4.59999 646.682 3.47999C647.802 2.36 649.156 1.8 650.742 1.8C652.329 1.8 653.682 2.36 654.802 3.47999C655.922 4.50666 656.482 5.81333 656.482 7.39999C656.482 8.98666 655.922 10.34 654.802 11.46C653.682 12.58 652.329 13.14 650.742 13.14ZM712.306 104.56C705.4 104.56 699.146 102.973 693.546 99.8C688.04 96.6267 683.7 92.24 680.526 86.64C677.353 80.9467 675.766 74.5533 675.766 67.46C675.766 60.3667 677.353 54.02 680.526 48.42C683.7 42.7267 688.04 38.2933 693.546 35.12C699.146 31.9467 705.4 30.36 712.306 30.36C719.213 30.36 725.42 31.9467 730.926 35.12C736.526 38.2933 740.913 42.7267 744.086 48.42C747.26 54.02 748.846 60.3667 748.846 67.46C748.846 74.5533 747.26 80.9467 744.086 86.64C740.913 92.24 736.526 96.6267 730.926 99.8C725.42 102.973 719.213 104.56 712.306 104.56ZM712.306 98.26C717.906 98.26 722.9 96.9533 727.286 94.34C731.766 91.7267 735.266 88.0867 737.786 83.42C740.4 78.7533 741.706 73.4333 741.706 67.46C741.706 61.4867 740.4 56.1667 737.786 51.5C735.266 46.8333 731.766 43.1933 727.286 40.58C722.9 37.9667 717.906 36.66 712.306 36.66C706.706 36.66 701.666 37.9667 697.186 40.58C692.8 43.1933 689.3 46.8333 686.686 51.5C684.166 56.1667 682.906 61.4867 682.906 67.46C682.906 73.4333 684.166 78.7533 686.686 83.42C689.3 88.0867 692.8 91.7267 697.186 94.34C701.666 96.9533 706.706 98.26 712.306 98.26Z" fill="white"/>
</svg>
